<svg width="466" height="65" viewBox="0 0 466 65" fill="none" xmlns="http://www.w3.org/2000/svg">
<path d="M0 0.249995H30.855C39.865 0.249995 48.195 6.115 48.195 16.4C48.195 24.305 43.01 29.66 36.38 31.615C43.69 33.06 49.555 38.925 49.555 47.595C49.555 57.795 40.97 64 31.79 64H0V0.249995ZM27.37 32.38H7.055V62.64H27.455C37.57 62.64 42.5 56.605 42.5 47.595C42.5 38.585 35.02 32.38 27.37 32.38ZM7.055 1.61V31.105H26.01C36.21 31.105 41.14 25.24 41.14 16.4C41.14 7.39 33.66 1.61 25.925 1.61H7.055ZM57.7734 21.5H64.8284V25.155C72.1384 21.755 83.1884 21.5 89.6484 21.5V28.64C84.5484 26.855 72.0534 22.86 64.8284 26.77V64H57.7734V21.5ZM135.053 64H127.998V60.345C122.728 62.47 115.333 64 108.958 64C102.498 64 96.123 62.64 96.123 54.565V21.5H103.178V54.565C103.178 59.75 105.983 61.875 109.468 62.385C114.993 63.235 123.238 60.26 127.998 56.775V21.5H135.053V64ZM143.438 21.5H150.493V25.155C155.763 23.03 163.158 21.5 169.533 21.5C175.993 21.5 182.368 22.945 182.368 30.935V64H175.313V30.935C175.313 25.75 172.508 23.625 169.023 23.115C163.498 22.35 155.253 25.24 150.493 28.725V64H143.438V21.5ZM190.503 21.5H197.558V25.155C202.828 23.03 210.223 21.5 216.598 21.5C223.058 21.5 229.433 22.945 229.433 30.935V64H222.378V30.935C222.378 25.75 219.573 23.625 216.088 23.115C210.563 22.35 202.318 25.24 197.558 28.725V64H190.503V21.5ZM257.134 21.5C268.354 21.5 277.449 31.02 277.449 42.75C277.449 54.48 268.354 64 257.134 64C245.999 64 236.904 54.48 236.904 42.75C236.904 31.02 245.999 21.5 257.134 21.5ZM257.134 22.86C249.909 22.86 243.959 31.785 243.959 42.75C243.959 53.8 249.909 62.725 257.134 62.725C264.444 62.725 270.394 53.8 270.394 42.75C270.394 31.785 264.444 22.86 257.134 22.86ZM306.714 0.249995H329.409C346.579 0.249995 357.204 14.53 357.204 32.125C357.204 49.72 346.579 64 329.409 64H306.714V0.249995ZM313.769 1.61V62.725H324.224C341.309 62.725 350.149 47.935 350.149 32.125C350.149 16.315 341.309 1.61 324.224 1.61H313.769ZM365.151 21.5H372.206V64H365.151V21.5ZM368.721 12.575C370.676 12.575 372.206 14.105 372.206 16.06C372.206 18.015 370.676 19.63 368.721 19.63C366.766 19.63 365.151 18.015 365.151 16.06C365.151 14.105 366.766 12.575 368.721 12.575ZM419.521 35.695V64H412.466V49.72C409.406 57.455 402.861 64 394.021 64C385.946 64 380.591 58.9 380.591 50.74C380.591 43.43 386.286 37.82 393.511 37.82C399.461 37.82 402.606 40.88 407.536 41.39C411.956 41.9 412.466 39.18 412.466 35.695C412.466 27.705 408.726 23.03 400.311 22.86C395.551 22.775 389.261 24.645 387.476 29.575C386.796 31.275 386.796 33.23 387.646 35.27C382.886 35.695 380.591 33.485 380.591 30.51C380.591 27.535 383.651 25.07 386.541 23.795C389.941 22.35 395.211 21.5 400.566 21.5C410.851 21.585 419.521 24.135 419.521 35.695ZM412.466 41.305C410.936 42.835 408.301 42.92 406.346 42.58C402.946 41.985 399.546 40.71 396.061 40.965C390.451 41.475 387.731 46.235 387.646 50.825C387.476 58.815 394.106 62.555 400.991 60.175C408.641 57.455 412.041 48.785 412.466 41.305ZM426.563 54.65C426.733 50.74 430.473 49.125 433.873 50.23C432.768 52.355 432.768 54.395 433.448 56.095C435.658 61.195 443.478 62.81 448.323 62.555C459.628 62.045 464.218 51.335 453.253 47.085C446.453 44.45 436.083 45.13 430.303 39.86C425.373 35.355 426.393 28.13 432.088 24.73C436.083 22.265 441.948 21.5 446.963 21.5C450.533 21.5 455.293 22.265 458.948 23.795C461.753 25.07 464.813 27.535 464.813 30.51C464.813 33.485 462.518 35.695 457.758 35.27C459.883 30.17 456.823 25.665 451.128 23.795C446.198 22.18 439.908 22.605 435.998 24.815C431.918 27.11 430.898 32.21 434.808 34.93C440.163 38.67 451.383 37.99 458.353 41.305C462.518 43.26 465.493 46.405 465.493 51.42C465.493 61.11 454.358 63.915 444.923 64C439.568 64.085 426.223 62.045 426.563 54.65Z" fill="url(#paint0_linear_98_30)"/>
<defs>
<linearGradient id="paint0_linear_98_30" x1="382.5" y1="-1.61952e-06" x2="383.1" y2="69.8918" gradientUnits="userSpaceOnUse">
<stop offset="0.244792" stop-color="#F5A8B8"/>
<stop offset="0.998161" stop-color="#5ACFFB"/>
<stop offset="0.998578" stop-color="#5BCEFA"/>
</linearGradient>
</defs>
</svg>
